<mxfile host="65bd71144e" pages="4">
    <diagram id="otTxOApa3O5zQau3Rn1R" name="Страница 4">
        <mxGraphModel dx="362" dy="340" grid="1" gridSize="10" guides="1" tooltips="1" connect="1" arrows="1" fold="1" page="1" pageScale="1" pageWidth="827" pageHeight="1169" math="0" shadow="0">
            <root>
                <mxCell id="0"/>
                <mxCell id="1" parent="0"/>
                <mxCell id="7jNE8qw9Wb0VxGZcnt_r-7" value="" style="edgeStyle=orthogonalEdgeStyle;rounded=0;orthogonalLoop=1;jettySize=auto;html=1;" parent="1" source="7jNE8qw9Wb0VxGZcnt_r-1" target="7jNE8qw9Wb0VxGZcnt_r-3" edge="1">
                    <mxGeometry relative="1" as="geometry"/>
                </mxCell>
                <mxCell id="7jNE8qw9Wb0VxGZcnt_r-1" value="start" style="rounded=1;whiteSpace=wrap;html=1;" parent="1" vertex="1">
                    <mxGeometry x="340" y="110" width="120" height="60" as="geometry"/>
                </mxCell>
                <mxCell id="7jNE8qw9Wb0VxGZcnt_r-2" value="end" style="rounded=1;whiteSpace=wrap;html=1;" parent="1" vertex="1">
                    <mxGeometry x="340" y="660" width="120" height="60" as="geometry"/>
                </mxCell>
                <mxCell id="7jNE8qw9Wb0VxGZcnt_r-8" value="" style="edgeStyle=orthogonalEdgeStyle;rounded=0;orthogonalLoop=1;jettySize=auto;html=1;" parent="1" source="7jNE8qw9Wb0VxGZcnt_r-3" target="7jNE8qw9Wb0VxGZcnt_r-4" edge="1">
                    <mxGeometry relative="1" as="geometry"/>
                </mxCell>
                <mxCell id="7jNE8qw9Wb0VxGZcnt_r-3" value="setting the array" style="rounded=0;whiteSpace=wrap;html=1;" parent="1" vertex="1">
                    <mxGeometry x="340" y="230" width="120" height="60" as="geometry"/>
                </mxCell>
                <mxCell id="7jNE8qw9Wb0VxGZcnt_r-9" value="" style="edgeStyle=orthogonalEdgeStyle;rounded=0;orthogonalLoop=1;jettySize=auto;html=1;" parent="1" source="7jNE8qw9Wb0VxGZcnt_r-4" target="7jNE8qw9Wb0VxGZcnt_r-5" edge="1">
                    <mxGeometry relative="1" as="geometry"/>
                </mxCell>
                <mxCell id="7jNE8qw9Wb0VxGZcnt_r-4" value="ParsntArray" style="shape=parallelogram;perimeter=parallelogramPerimeter;whiteSpace=wrap;html=1;fixedSize=1;" parent="1" vertex="1">
                    <mxGeometry x="339" y="350" width="120" height="60" as="geometry"/>
                </mxCell>
                <mxCell id="7jNE8qw9Wb0VxGZcnt_r-10" value="" style="edgeStyle=orthogonalEdgeStyle;rounded=0;orthogonalLoop=1;jettySize=auto;html=1;" parent="1" source="7jNE8qw9Wb0VxGZcnt_r-5" target="7jNE8qw9Wb0VxGZcnt_r-6" edge="1">
                    <mxGeometry relative="1" as="geometry"/>
                </mxCell>
                <mxCell id="7jNE8qw9Wb0VxGZcnt_r-5" value="PrintArray" style="shape=parallelogram;perimeter=parallelogramPerimeter;whiteSpace=wrap;html=1;fixedSize=1;" parent="1" vertex="1">
                    <mxGeometry x="340" y="450" width="120" height="60" as="geometry"/>
                </mxCell>
                <mxCell id="7jNE8qw9Wb0VxGZcnt_r-11" value="" style="edgeStyle=orthogonalEdgeStyle;rounded=0;orthogonalLoop=1;jettySize=auto;html=1;" parent="1" source="7jNE8qw9Wb0VxGZcnt_r-6" target="7jNE8qw9Wb0VxGZcnt_r-2" edge="1">
                    <mxGeometry relative="1" as="geometry"/>
                </mxCell>
                <mxCell id="7jNE8qw9Wb0VxGZcnt_r-6" value="PrintArray(new array)" style="shape=parallelogram;perimeter=parallelogramPerimeter;whiteSpace=wrap;html=1;fixedSize=1;" parent="1" vertex="1">
                    <mxGeometry x="324" y="550" width="150" height="60" as="geometry"/>
                </mxCell>
            </root>
        </mxGraphModel>
    </diagram>
</mxfile>